<svg width="400" height="300" viewBox="0 0 400 300" xmlns="http://www.w3.org/2000/svg">
  <defs>
    <linearGradient id="bgGradient" x1="0%" y1="0%" x2="100%" y2="100%">
      <stop offset="0%" style="stop-color:#667eea;stop-opacity:1" />
      <stop offset="100%" style="stop-color:#764ba2;stop-opacity:1" />
    </linearGradient>
    <filter id="shadow" x="-20%" y="-20%" width="140%" height="140%">
      <feDropShadow dx="0" dy="4" stdDeviation="8" flood-color="#000000" flood-opacity="0.3"/>
    </filter>
  </defs>
  
  <!-- Background -->
  <rect width="400" height="300" fill="url(#bgGradient)"/>
  
  <!-- Smartphone 1 -->
  <g transform="translate(80, 80)" filter="url(#shadow)">
    <rect x="0" y="0" width="60" height="120" rx="8" fill="#ffffff" stroke="#e2e8f0" stroke-width="2"/>
    <rect x="4" y="4" width="52" height="112" rx="6" fill="#1a202c"/>
    <rect x="8" y="8" width="44" height="104" rx="4" fill="#2d3748"/>
    <circle cx="30" cy="20" r="3" fill="#667eea"/>
    <rect x="15" y="35" width="30" height="60" rx="2" fill="#4a5568"/>
    <rect x="20" y="40" width="20" height="50" rx="1" fill="#a0aec0"/>
    <circle cx="30" cy="105" r="8" fill="#667eea"/>
  </g>
  
  <!-- Smartphone 2 -->
  <g transform="translate(200, 60)" filter="url(#shadow)">
    <rect x="0" y="0" width="70" height="140" rx="10" fill="#ffffff" stroke="#e2e8f0" stroke-width="2"/>
    <rect x="4" y="4" width="62" height="132" rx="8" fill="#1a202c"/>
    <rect x="8" y="8" width="54" height="124" rx="6" fill="#2d3748"/>
    <circle cx="35" cy="25" r="4" fill="#667eea"/>
    <rect x="15" y="40" width="40" height="70" rx="3" fill="#4a5568"/>
    <rect x="20" y="45" width="30" height="60" rx="2" fill="#a0aec0"/>
    <circle cx="35" cy="120" r="10" fill="#667eea"/>
  </g>
  
  <!-- Smartphone 3 (Small) -->
  <g transform="translate(320, 100)" filter="url(#shadow)">
    <rect x="0" y="0" width="50" height="100" rx="6" fill="#ffffff" stroke="#e2e8f0" stroke-width="2"/>
    <rect x="3" y="3" width="44" height="94" rx="4" fill="#1a202c"/>
    <rect x="6" y="6" width="38" height="88" rx="3" fill="#2d3748"/>
    <circle cx="25" cy="18" r="2" fill="#667eea"/>
    <rect x="12" y="30" width="26" height="50" rx="2" fill="#4a5568"/>
    <rect x="15" y="35" width="20" height="40" rx="1" fill="#a0aec0"/>
    <circle cx="25" cy="85" r="6" fill="#667eea"/>
  </g>
  
  <!-- Floating Icons -->
  <g opacity="0.8">
    <circle cx="50" cy="250" r="15" fill="#667eea"/>
    <text x="50" y="255" text-anchor="middle" fill="white" font-size="12" font-weight="bold">📱</text>
    
    <circle cx="350" cy="250" r="15" fill="#764ba2"/>
    <text x="350" y="255" text-anchor="middle" fill="white" font-size="12" font-weight="bold">📲</text>
  </g>
  
  <!-- Decorative Elements -->
  <g opacity="0.1">
    <circle cx="100" cy="50" r="20" fill="white"/>
    <circle cx="300" cy="200" r="15" fill="white"/>
    <circle cx="150" cy="250" r="10" fill="white"/>
  </g>
</svg> 